# xmcd CD database file
#
# Track frame offsets:
#	150
#	10854
#	21255
#	35352
#	47397
#	69711
#	85165
#	98310
#	113192
#	137029
#	149045
#	162106
#	173843
#	187379
#	199433
#	218787
#	231256
#	245604
#	259547
#
# Disc length: 3638 seconds
#
# Revision: 5
# Processed by: cddbd v1.5.1PL2 Copyright (c) Steve Scherf et al.
# Submitted via: CDex 1.51
#
DISCID=0e0e3413
DTITLE=Various Artist - Sweet Soul Music CD1
DYEAR=2002
DGENRE=Soul
TTITLE0=Arthur Conley - Sweet Soul Music
TTITLE1=Aretha Franklin - Think
TTITLE2=Wilson Pickett - Mustang Sally
TTITLE3=The Drifters - Under The Boardwalk
TTITLE4=The Spinners - Mighty Love-Part1
TTITLE5=Dionne Warwick - Don´t Make Me Over
TTITLE6=Ben E. King - Stand By Me
TTITLE7=Isaac Hayes - Theme From "Shaft"
TTITLE8=James Brown - (Get Up I Feel Like Being Like A) Sex Machine
TTITLE9=Martha Reeves and The Vandellas - Dancing In The Street
TTITLE10=The O´Jays - Love Train
TTITLE11=Sam and Dave - Hold On I´m Coming
TTITLE12=Four Tops - Reach Out I´ll Be There
TTITLE13=Otis Redding - (Sittin´On) The Dock Of The Bay
TTITLE14=Bill Withers - Lean On Me
TTITLE15=Solomon Burke - Everybody Needs Somebody To Love
TTITLE16=Ray Charles - What´d I Say-Part 1
TTITLE17=Percy Sledge - Love Me Tender
TTITLE18=Sly and The Family Stone - Dance To The Music
EXTD=YEAR: 2002
EXTT0=
EXTT1=
EXTT2=
EXTT3=
EXTT4=
EXTT5=
EXTT6=
EXTT7=
EXTT8=
EXTT9=
EXTT10=
EXTT11=
EXTT12=
EXTT13=
EXTT14=
EXTT15=
EXTT16=
EXTT17=
EXTT18=
PLAYORDER=
